#!OML:ASF F:\VICON\USERDATA\INSTALL\rory3\rory3.ASF
:FULLY-SPECIFIED
:DEGREES
913
root -2.59307 14.5661 -33.8205 -322.021 43.364 18.0718
lowerback -20.8347 -11.964 -0.974559
upperback -15.0524 -15.0537 0.0658853
thorax -5.01125 -7.43565 -1.8003
lowerneck -6.81629 -0.0449771 -5.14356
upperneck 21.2876 0.438098 1.54445
head 7.65436 -0.0315725 1.41442
rclavicle 4.27387e-015 -5.96354e-014
rhumerus -29.2726 -36.5743 6.18353
rradius 26.2087
rwrist 3.88248
rhand -3.64406 4.40233
rfingers 7.12502
rthumb 22.0957 -24.3552
lclavicle 4.27387e-015 -5.96354e-014
lhumerus 57.0257 1.97908 59.4513
lradius 43.8024
lwrist -26.7159
lhand -8.51134 21.2828
lfingers 7.12502
lthumb 17.4168 50.5225
rfemur -97.9845 -34.8042 405.349
rtibia 68.8781
rfoot 143.445 146.042
rtoes 32.0286
lfemur -16.9388 -10.6916 -28.7086
ltibia 34.132
lfoot -45.207 21.3162
ltoes -19.7329
914
root -2.59211 14.5784 -33.838 -321.826 43.5539 18.0865
lowerback -20.9676 -11.877 -0.654137
upperback -14.629 -14.9975 0.0612473
thorax -4.53648 -7.43613 -2.0354
lowerneck -8.86726 -0.515348 -5.46055
upperneck 21.952 -0.0711874 1.67357
head 8.26966 -0.295385 1.47553
rclavicle 1.81888e-014 2.06736e-014
rhumerus -30.09 -37.6042 5.75782
rradius 26.2625
rwrist 1.87706
rhand -6.29653 6.74178
rfingers 7.12502
rthumb 19.5473 -22.2956
lclavicle 1.81888e-014 2.06736e-014
lhumerus 56.4666 2.14095 59.9615
lradius 44.9278
lwrist -26.5849
lhand -10.0248 20.6859
lfingers 7.12502
lthumb 15.9598 50.0484
rfemur -98.282 -34.8157 405.504
rtibia 68.8832
rfoot 143.609 145.912
rtoes 32.7874
lfemur -17.2405 -10.8893 -28.6159
ltibia 34.2176
lfoot -45.1617 21.1781
ltoes -19.0424
915
root -2.59666 14.5759 -33.8347 -321.805 43.7652 18.2605
lowerback -20.9872 -11.9192 -0.971659
upperback -15.0191 -14.9794 -0.101625
thorax -4.94862 -7.40359 -1.99366
lowerneck -6.1288 -0.677295 -5.46727
upperneck 21.2833 -0.455228 1.64633
head 7.56369 -0.476687 1.42635
rclavicle -1.39845e-013 -4.05521e-014
rhumerus -31.0639 -35.8104 5.34444
rradius 26.4946
rwrist -0.314539
rhand -8.57335 9.24801
rfingers 7.12502
rthumb 17.3571 -19.997
lclavicle -1.39845e-013 -4.05521e-014
lhumerus 54.0255 1.07739 60.2583
lradius 46.126
lwrist -26.465
lhand -11.3938 20.0889
lfingers 7.12502
lthumb 14.6411 49.5521
rfemur -97.9477 -34.9435 405.217
rtibia 68.7267
rfoot 143.67 145.683
rtoes 33.6153
lfemur -17.2147 -10.8162 -28.5908
ltibia 34.4055
lfoot -44.9144 21.207
ltoes -19.529
916
root -2.60122 14.5964 -33.8189 -322.097 44.0209 18.5205
lowerback -20.7433 -12.0858 -1.36614
upperback -14.6075 -15.1523 -0.05119
thorax -4.48154 -7.46017 -1.79479
lowerneck -7.14697 -1.05185 -6.1339
upperneck 21.7572 -0.907874 2.09187
head 7.92905 -0.709597 1.6491
rclavicle 3.46879e-014 -7.95139e-015
rhumerus -31.602 -36.45 4.77206
rradius 26.4052
rwrist -1.24683
rhand -10.8333 11.8751
rfingers 7.12502
rthumb 15.1811 -17.548
lclavicle 3.46879e-014 -7.95139e-015
lhumerus 52.8259 1.18483 60.7397
lradius 47.1756
lwrist -26.5432
lhand -12.5465 19.3496
lfingers 7.12502
lthumb 13.5303 48.89
rfemur -97.2719 -35.3699 404.632
rtibia 68.8084
rfoot 143.079 145.862
rtoes 34.227
lfemur -16.5609 -10.583 -28.6209
ltibia 34.2459
lfoot -44.6052 21.1414
ltoes -20.4744
917
root -2.60258 14.5878 -33.8325 -322.072 44.156 18.4626
lowerback -20.7496 -12.0375 -1.15586
upperback -14.3949 -15.1296 0.00090819
thorax -4.26929 -7.46434 -1.87025
lowerneck -7.98514 -1.25616 -6.48061
upperneck 21.9804 -1.1248 2.29582
head 8.17062 -0.822032 1.75553
rclavicle 1.25234e-014 8.74653e-015
rhumerus -32.2928 -37.1697 4.26607
rradius 26.2227
rwrist -1.41916
rhand -13.2311 14.3615
rfingers 7.12502
rthumb 12.8704 -15.2216
lclavicle 1.25234e-014 8.74653e-015
lhumerus 51.6416 1.20187 61.2671
lradius 47.9908
lwrist -26.8269
lhand -13.7378 18.4292
lfingers 7.12502
lthumb 12.3819 48.0426
rfemur -97.202 -35.2926 404.643
rtibia 68.5707
rfoot 143.181 145.425
rtoes 34.4742
lfemur -16.6206 -10.7686 -28.514
ltibia 34.151
lfoot -44.7382 20.8913
ltoes -19.9069
918
root -2.60376 14.5986 -33.8414 -322.165 44.3884 18.4087
lowerback -20.7471 -12.0554 -1.1308
upperback -14.6612 -15.1455 -0.0287363
thorax -4.59362 -7.47125 -1.87531
lowerneck -5.81018 -1.3658 -6.49023
upperneck 21.1461 -1.40772 2.20337
head 7.51204 -0.963856 1.70214
rclavicle 1.19072e-013 2.78299e-014
rhumerus -33.0194 -35.996 3.56061
rradius 26.2098
rwrist -1.5758
rhand -15.8181 16.2776
rfingers 7.12502
rthumb 10.3756 -13.4464
lclavicle 1.19072e-013 2.78299e-014
lhumerus 49.2983 0.570273 61.615
lradius 48.8155
lwrist -27.2283
lhand -14.8184 17.519
lfingers 7.12502
lthumb 11.3399 47.1924
rfemur -97.1305 -35.3926 404.759
rtibia 68.4644
rfoot 143.782 144.653
rtoes 33.0132
lfemur -16.4932 -10.8813 -28.3551
ltibia 33.9914
lfoot -44.7705 20.5337
ltoes -19.2136
919
root -2.60602 14.6123 -33.8395 -322.425 44.7071 18.5257
lowerback -20.595 -12.0937 -1.20398
upperback -13.9648 -15.2078 -0.0164115
thorax -3.84667 -7.50172 -1.90872
lowerneck -7.77414 -1.83115 -6.53148
upperneck 21.3783 -1.8583 1.9393
head 7.96603 -1.20269 1.57286
rclavicle 6.54002e-014 4.69132e-014
rhumerus -33.8871 -37.3433 3.08576
rradius 26.0408
rwrist -1.03108
rhand -18.163 17.9526
rfingers 7.12502
rthumb 8.11298 -11.8716
lclavicle 6.54002e-014 4.69132e-014
lhumerus 48.6659 0.775506 62.0751
lradius 49.5601
lwrist -27.4886
lhand -15.9959 16.5009
lfingers 7.12502
lthumb 10.2041 46.2335
rfemur -96.4462 -35.7524 404.337
rtibia 68.3691
rfoot 142.817 145.25
rtoes 33.1765
lfemur -16.0989 -10.7675 -28.2683
ltibia 33.9872
lfoot -44.5552 20.4257
ltoes -19.8841
920
root -2.60409 14.6324 -33.8669 -322.13 44.75 18.5067
lowerback -20.3632 -11.8328 -0.621675
upperback -14.6607 -14.9629 -0.358495
thorax -4.99904 -7.43536 -2.34058
lowerneck -6.21575 -1.8957 -6.34957
upperneck 21.9919 -2.12942 2.16338
head 7.89806 -1.3097 1.60604
rclavicle 7.99114e-014 7.63333e-014
rhumerus -35.2583 -35.5425 2.58232
rradius 26.2142
rwrist -1.24792
rhand -19.7674 19.4405
rfingers 7.12502
rthumb 6.56436 -10.4378
lclavicle 7.99114e-014 7.63333e-014
lhumerus 45.8658 -0.553797 62.1889
lradius 50.3352
lwrist -27.411
lhand -17.6999 15.4763
lfingers 7.12502
lthumb 8.55991 45.2827
rfemur -96.8225 -35.5591 404.396
rtibia 68.3425
rfoot 142.613 145.184
rtoes 32.0655
lfemur -16.5325 -10.8673 -28.2463
ltibia 33.9066
lfoot -44.3576 20.6128
ltoes -20.2656
921
root -2.60458 14.6285 -33.8851 -321.962 44.8804 18.6889
lowerback -20.8913 -11.8234 -1.16179
upperback -14.1416 -14.8299 -0.302865
thorax -3.98764 -7.32043 -2.18765
lowerneck -6.1599 -2.35562 -6.4997
upperneck 21.3982 -2.73688 2.09844
head 7.72176 -1.61119 1.55426
rclavicle -8.74653e-015 5.32743e-014
rhumerus -36.5421 -36.3284 2.56625
rradius 26.1661
rwrist -0.803049
rhand -21.2444 20.5205
rfingers 7.12502
rthumb 5.1384 -9.39715
lclavicle -8.74653e-015 5.32743e-014
lhumerus 44.8984 -0.877551 62.9366
lradius 50.9519
lwrist -27.8724
lhand -19.6033 14.5823
lfingers 7.12502
lthumb 6.72281 44.4556
rfemur -96.7079 -35.5107 404.079
rtibia 68.2
rfoot 142.145 145.032
rtoes 31.3482
lfemur -16.6526 -11.0538 -28.2987
ltibia 33.9271
lfoot -44.4708 20.2798
ltoes -19.5262
922
root -2.60601 14.6379 -33.8941 -321.901 45.1147 18.9019
lowerback -21.0747 -11.9319 -1.67888
upperback -14.2184 -14.8584 -0.238874
thorax -3.84325 -7.28812 -1.90844
lowerneck -4.21629 -2.48735 -6.73266
upperneck 20.7685 -3.04975 2.245
head 7.18768 -1.76943 1.63494
rclavicle -2.26615e-014 3.65764e-014
rhumerus -37.4098 -35.3927 1.99371
rradius 26.2357
rwrist -1.08162
rhand -22.754 21.2937
rfingers 7.12502
rthumb 3.68064 -8.65429
lclavicle -2.26615e-014 3.65764e-014
lhumerus 42.5824 -1.49121 63.5625
lradius 51.6371
lwrist -28.3247
lhand -20.9991 13.6494
lfingers 7.12502
lthumb 5.37523 43.5612
rfemur -96.519 -35.6512 403.733
rtibia 68.0999
rfoot 142.047 144.618
rtoes 32.9076
lfemur -16.6887 -11.227 -28.3062
ltibia 34.1209
lfoot -44.4688 20.2193
ltoes -19.5423
